<svg width="34" height="34" viewBox="0 0 34 34" fill="none" xmlns="http://www.w3.org/2000/svg">
<g filter="url(#filter0_i)">
<path fill-rule="evenodd" clip-rule="evenodd" d="M0 10C0 4.47715 4.47715 0 10 0H24C29.5228 0 34 4.47715 34 10V15.5C34 21.0228 29.5228 25.5 24 25.5H14.5482L4.346 33.7481L6.32353 24.8025C2.61984 23.3376 0 19.7247 0 15.5V10ZM6.23333 6.51664C6.23333 5.73424 6.8676 5.09998 7.65 5.09998H25.7833C26.5657 5.09998 27.2 5.73424 27.2 6.51664C27.2 7.29905 26.5657 7.93331 25.7833 7.93331H7.65C6.8676 7.93331 6.23333 7.29905 6.23333 6.51664ZM7.65 11.3333C6.8676 11.3333 6.23333 11.9676 6.23333 12.75C6.23333 13.5324 6.8676 14.1666 7.65 14.1666H25.7833C26.5657 14.1666 27.2 13.5324 27.2 12.75C27.2 11.9676 26.5657 11.3333 25.7833 11.3333H7.65ZM6.23333 18.9833C6.23333 18.2009 6.8676 17.5666 7.65 17.5666H25.7833C26.5657 17.5666 27.2 18.2009 27.2 18.9833C27.2 19.7657 26.5657 20.4 25.7833 20.4H7.65C6.8676 20.4 6.23333 19.7657 6.23333 18.9833Z" fill="#FEF6F6"/>
</g>
<defs>
<filter id="filter0_i" x="0" y="0" width="34" height="35.7481" filterUnits="userSpaceOnUse" color-interpolation-filters="sRGB">
<feFlood flood-opacity="0" result="BackgroundImageFix"/>
<feBlend mode="normal" in="SourceGraphic" in2="BackgroundImageFix" result="shape"/>
<feColorMatrix in="SourceAlpha" type="matrix" values="0 0 0 0 0 0 0 0 0 0 0 0 0 0 0 0 0 0 127 0" result="hardAlpha"/>
<feOffset dy="2"/>
<feGaussianBlur stdDeviation="2"/>
<feComposite in2="hardAlpha" operator="arithmetic" k2="-1" k3="1"/>
<feColorMatrix type="matrix" values="0 0 0 0 0.732773 0 0 0 0 0.0672269 0 0 0 0 0.0672271 0 0 0 1 0"/>
<feBlend mode="normal" in2="shape" result="effect1_innerShadow"/>
</filter>
</defs>
</svg>
