<svg width="955" height="165" viewBox="0 0 955 165" fill="none" xmlns="http://www.w3.org/2000/svg">
<path fill-rule="evenodd" clip-rule="evenodd" d="M726.719 0H852.2L602.2 165H476.718L726.719 0ZM748.895 165H623.413L873.413 0H955V28.9707L748.895 165ZM770.108 165H955V42.9714L770.108 165ZM705.505 0H580.024L330.024 165H455.505L705.505 0ZM433.329 0H558.81L308.81 165H183.329L433.329 0ZM412.116 0H286.634L36.634 165H162.116L412.116 0ZM139.939 0H265.421L15.4208 165H0V92.3599L139.939 0ZM118.726 0H0V78.3591L118.726 0Z" fill="#FAF0D1"/>
</svg>
