<svg width="955" height="165" viewBox="0 0 955 165" fill="none" xmlns="http://www.w3.org/2000/svg">
<g filter="url(#filter0_i)">
<path fill-rule="evenodd" clip-rule="evenodd" d="M139.939 0H118.726L0 78.3591V92.3599L139.939 0ZM265.421 0L15.4208 165H36.634L286.634 0H265.421ZM412.116 0L162.116 165H183.329L433.329 0H412.116ZM558.81 0L308.81 165H330.024L580.024 0H558.81ZM705.505 0L455.505 165H476.718L726.719 0H705.505ZM852.2 0L602.2 165H623.413L873.413 0H852.2ZM955 28.9707L748.895 165H770.108L955 42.9714V28.9707Z" fill="#EB2525"/>
</g>
<path fill-rule="evenodd" clip-rule="evenodd" d="M726.719 0H852.2L602.2 165H476.718L726.719 0ZM748.895 165H623.413L873.413 0H955V28.9707L748.895 165ZM770.108 165H955V42.9714L770.108 165ZM705.505 0H580.024L330.024 165H455.505L705.505 0ZM433.329 0H558.81L308.81 165H183.329L433.329 0ZM412.116 0H286.634L36.634 165H162.116L412.116 0ZM139.939 0H265.421L15.4208 165H0V92.3599L139.939 0ZM118.726 0H0V78.3591L118.726 0Z" fill="#750B0B"/>
<g filter="url(#filter1_i)">
<path d="M422.838 39.3594V71H416.322V51.875L408.259 60.6875H406.384L398.228 51.875V71H391.713V39.3594H393.916L407.322 53.3281L420.634 39.3594H422.838ZM433.971 47.3281L440.721 62.4219L447.284 47.3281H454.081L436.878 82.25H430.128L437.253 69.2656L427.034 47.3281H433.971Z" fill="#EB2525"/>
<path d="M477.121 53.375V59.2344H464.793V71H458.277V39.5938H479.699V45.4531H464.793V53.375H477.121ZM497.067 46.7188C499.379 46.7188 501.489 47.2812 503.395 48.4062C505.301 49.5 506.833 51 507.989 52.9062C509.176 54.7812 509.77 56.8906 509.77 59.2344C509.77 61.5781 509.176 63.6875 507.989 65.5625C506.833 67.4375 505.301 68.9375 503.395 70.0625C501.489 71.1562 499.379 71.7031 497.067 71.7031C494.786 71.7031 492.676 71.1562 490.739 70.0625C488.833 68.9375 487.301 67.4375 486.145 65.5625C484.989 63.6875 484.411 61.5781 484.411 59.2344C484.411 56.8906 484.989 54.7812 486.145 52.9062C487.301 51 488.833 49.5 490.739 48.4062C492.676 47.2812 494.786 46.7188 497.067 46.7188ZM497.067 52.4844C495.942 52.4844 494.895 52.75 493.926 53.2812C492.958 53.8125 492.176 54.5781 491.583 55.5781C491.02 56.5781 490.739 57.7969 490.739 59.2344C490.739 60.6719 491.02 61.8906 491.583 62.8906C492.176 63.8906 492.958 64.6562 493.926 65.1875C494.895 65.6875 495.942 65.9375 497.067 65.9375C498.192 65.9375 499.239 65.6875 500.208 65.1875C501.176 64.6562 501.958 63.8906 502.551 62.8906C503.145 61.8906 503.442 60.6719 503.442 59.2344C503.442 57.7969 503.145 56.5781 502.551 55.5781C501.958 54.5781 501.176 53.8125 500.208 53.2812C499.239 52.75 498.192 52.4844 497.067 52.4844ZM525.451 46.7188C527.763 46.7188 529.872 47.2812 531.779 48.4062C533.685 49.5 535.216 51 536.372 52.9062C537.56 54.7812 538.154 56.8906 538.154 59.2344C538.154 61.5781 537.56 63.6875 536.372 65.5625C535.216 67.4375 533.685 68.9375 531.779 70.0625C529.872 71.1562 527.763 71.7031 525.451 71.7031C523.169 71.7031 521.06 71.1562 519.122 70.0625C517.216 68.9375 515.685 67.4375 514.529 65.5625C513.372 63.6875 512.794 61.5781 512.794 59.2344C512.794 56.8906 513.372 54.7812 514.529 52.9062C515.685 51 517.216 49.5 519.122 48.4062C521.06 47.2812 523.169 46.7188 525.451 46.7188ZM525.451 52.4844C524.326 52.4844 523.279 52.75 522.31 53.2812C521.341 53.8125 520.56 54.5781 519.966 55.5781C519.404 56.5781 519.122 57.7969 519.122 59.2344C519.122 60.6719 519.404 61.8906 519.966 62.8906C520.56 63.8906 521.341 64.6562 522.31 65.1875C523.279 65.6875 524.326 65.9375 525.451 65.9375C526.576 65.9375 527.622 65.6875 528.591 65.1875C529.56 64.6562 530.341 63.8906 530.935 62.8906C531.529 61.8906 531.826 60.6719 531.826 59.2344C531.826 57.7969 531.529 56.5781 530.935 55.5781C530.341 54.5781 529.56 53.8125 528.591 53.2812C527.622 52.75 526.576 52.4844 525.451 52.4844ZM565.319 37.25V71H559.366V67.0156C558.678 68.2969 557.678 69.4062 556.366 70.3438C555.053 71.25 553.522 71.7031 551.772 71.7031C549.866 71.7031 548.1 71.2188 546.475 70.25C544.881 69.2812 543.6 67.875 542.631 66.0312C541.663 64.1875 541.178 61.9531 541.178 59.3281C541.178 56.7031 541.663 54.4531 542.631 52.5781C543.631 50.7031 544.959 49.2656 546.616 48.2656C548.303 47.2344 550.163 46.7188 552.194 46.7188C553.475 46.7188 554.772 47.0156 556.084 47.6094C557.397 48.2031 558.491 49 559.366 50V37.25H565.319ZM553.413 52.5781C552.163 52.5781 551.084 52.9062 550.178 53.5625C549.303 54.1875 548.616 55.0156 548.116 56.0469C547.616 57.0469 547.366 58.1406 547.366 59.3281C547.366 61.1094 547.897 62.625 548.959 63.875C550.053 65.125 551.491 65.75 553.272 65.75C554.334 65.75 555.319 65.4688 556.225 64.9062C557.163 64.3438 557.913 63.5625 558.475 62.5625C559.069 61.5312 559.366 60.2969 559.366 58.8594V55.4844C558.522 54.5781 557.6 53.875 556.6 53.375C555.631 52.8438 554.569 52.5781 553.413 52.5781Z" fill="white"/>
</g>
<g filter="url(#filter2_i)">
<path d="M478 84H567C568.657 84 570 85.3431 570 87V96C570 97.6569 568.657 99 567 99H478V84Z" fill="#EB2525"/>
</g>
<g filter="url(#filter3_i)">
<path d="M386 87C386 85.3431 387.343 84 389 84H478V99H389C387.343 99 386 97.6569 386 96V87Z" fill="#FEF6F6"/>
</g>
<path d="M398.427 90.276C398.427 90.78 398.275 91.248 397.971 91.68C397.675 92.112 397.287 92.432 396.807 92.64L398.763 96.012L397.191 96L395.415 92.844H393.495V96H392.199V87.6H395.775C396.215 87.6 396.635 87.708 397.035 87.924C397.443 88.14 397.775 88.448 398.031 88.848C398.295 89.248 398.427 89.724 398.427 90.276ZM395.559 88.848H393.495V91.596H395.895C396.279 91.596 396.575 91.46 396.783 91.188C396.999 90.916 397.107 90.608 397.107 90.264C397.107 89.824 396.955 89.48 396.651 89.232C396.347 88.976 395.983 88.848 395.559 88.848ZM405.288 95.172H405.276C405.02 95.42 404.668 95.64 404.22 95.832C403.772 96.024 403.304 96.12 402.816 96.12C402.16 96.12 401.58 95.984 401.076 95.712C400.58 95.432 400.192 95.052 399.912 94.572C399.632 94.084 399.492 93.532 399.492 92.916C399.492 92.212 399.64 91.612 399.936 91.116C400.232 90.612 400.624 90.228 401.112 89.964C401.6 89.692 402.132 89.556 402.708 89.556C403.236 89.556 403.716 89.688 404.148 89.952C404.58 90.208 404.924 90.564 405.18 91.02C405.436 91.476 405.564 92.008 405.564 92.616L405.552 93.144H400.728C400.8 93.712 401.032 94.164 401.424 94.5C401.824 94.828 402.328 94.992 402.936 94.992C403.376 94.992 403.732 94.912 404.004 94.752C404.276 94.584 404.5 94.424 404.676 94.272L405.288 95.172ZM402.708 90.696C402.236 90.696 401.824 90.808 401.472 91.032C401.12 91.248 400.888 91.624 400.776 92.16H404.304V92.076C404.28 91.804 404.188 91.564 404.028 91.356C403.876 91.148 403.684 90.988 403.452 90.876C403.22 90.756 402.972 90.696 402.708 90.696ZM412.691 87.12V96H411.455V95.112C411.271 95.36 410.999 95.592 410.639 95.808C410.279 96.016 409.871 96.12 409.415 96.12C408.847 96.12 408.335 95.98 407.879 95.7C407.423 95.42 407.063 95.032 406.799 94.536C406.535 94.04 406.403 93.476 406.403 92.844C406.403 92.204 406.535 91.64 406.799 91.152C407.063 90.656 407.419 90.268 407.867 89.988C408.315 89.708 408.819 89.568 409.379 89.568C409.827 89.568 410.231 89.66 410.591 89.844C410.959 90.028 411.247 90.244 411.455 90.492V87.12H412.691ZM409.583 95.052C409.967 95.052 410.303 94.956 410.591 94.764C410.879 94.572 411.103 94.308 411.263 93.972C411.423 93.636 411.503 93.26 411.503 92.844C411.503 92.42 411.423 92.044 411.263 91.716C411.103 91.38 410.879 91.116 410.591 90.924C410.303 90.732 409.967 90.636 409.583 90.636C409.207 90.636 408.875 90.732 408.587 90.924C408.299 91.116 408.071 91.38 407.903 91.716C407.743 92.044 407.663 92.42 407.663 92.844C407.663 93.26 407.743 93.636 407.903 93.972C408.071 94.308 408.299 94.572 408.587 94.764C408.875 94.956 409.207 95.052 409.583 95.052ZM415.101 88.332C414.821 88.332 414.613 88.26 414.477 88.116C414.341 87.972 414.273 87.784 414.273 87.552C414.273 87.352 414.341 87.172 414.477 87.012C414.613 86.852 414.821 86.772 415.101 86.772C415.381 86.772 415.589 86.844 415.725 86.988C415.861 87.132 415.929 87.32 415.929 87.552C415.929 87.752 415.861 87.932 415.725 88.092C415.589 88.252 415.381 88.332 415.101 88.332ZM415.737 96H414.501V89.7H415.737V96ZM421.129 91.356C420.905 91.132 420.649 90.948 420.361 90.804C420.081 90.66 419.821 90.588 419.581 90.588C419.413 90.588 419.245 90.608 419.077 90.648C418.917 90.688 418.781 90.764 418.669 90.876C418.557 90.98 418.501 91.136 418.501 91.344C418.509 91.632 418.637 91.836 418.885 91.956C419.141 92.076 419.457 92.184 419.833 92.28C420.161 92.368 420.481 92.48 420.793 92.616C421.105 92.744 421.361 92.936 421.561 93.192C421.769 93.44 421.873 93.792 421.873 94.248C421.873 94.64 421.761 94.976 421.537 95.256C421.321 95.536 421.037 95.752 420.685 95.904C420.341 96.048 419.977 96.12 419.593 96.12C419.137 96.12 418.685 96.04 418.237 95.88C417.797 95.712 417.421 95.428 417.109 95.028L417.949 94.308C418.165 94.556 418.409 94.752 418.681 94.896C418.961 95.032 419.301 95.1 419.701 95.1C419.853 95.1 420.005 95.076 420.157 95.028C420.309 94.972 420.437 94.888 420.541 94.776C420.653 94.656 420.709 94.496 420.709 94.296C420.709 94.104 420.649 93.956 420.529 93.852C420.417 93.74 420.265 93.652 420.073 93.588C419.881 93.516 419.669 93.452 419.437 93.396C419.093 93.3 418.753 93.184 418.417 93.048C418.089 92.904 417.813 92.704 417.589 92.448C417.373 92.184 417.265 91.828 417.265 91.38C417.265 91.004 417.369 90.684 417.577 90.42C417.793 90.148 418.073 89.94 418.417 89.796C418.761 89.644 419.129 89.568 419.521 89.568C419.897 89.568 420.305 89.648 420.745 89.808C421.185 89.968 421.549 90.224 421.837 90.576L421.129 91.356ZM423.943 88.332C423.663 88.332 423.455 88.26 423.319 88.116C423.183 87.972 423.115 87.784 423.115 87.552C423.115 87.352 423.183 87.172 423.319 87.012C423.455 86.852 423.663 86.772 423.943 86.772C424.223 86.772 424.431 86.844 424.567 86.988C424.703 87.132 424.771 87.32 424.771 87.552C424.771 87.752 424.703 87.932 424.567 88.092C424.431 88.252 424.223 88.332 423.943 88.332ZM424.579 96H423.343V89.7H424.579V96ZM427.199 97.044C427.439 97.228 427.739 97.376 428.099 97.488C428.459 97.6 428.811 97.656 429.155 97.656C429.803 97.656 430.299 97.496 430.643 97.176C430.987 96.864 431.159 96.392 431.159 95.76V94.992C431.047 95.184 430.887 95.368 430.679 95.544C430.471 95.712 430.227 95.852 429.947 95.964C429.667 96.068 429.375 96.12 429.071 96.12C428.487 96.12 427.959 95.98 427.487 95.7C427.015 95.42 426.639 95.032 426.359 94.536C426.087 94.04 425.951 93.476 425.951 92.844C425.951 92.204 426.087 91.64 426.359 91.152C426.631 90.656 426.999 90.268 427.463 89.988C427.935 89.708 428.459 89.568 429.035 89.568C429.515 89.568 429.939 89.676 430.307 89.892C430.683 90.1 430.967 90.328 431.159 90.576V89.7H432.395V95.616C432.395 96.368 432.243 96.972 431.939 97.428C431.643 97.892 431.247 98.228 430.751 98.436C430.263 98.652 429.731 98.76 429.155 98.76C428.707 98.76 428.259 98.688 427.811 98.544C427.371 98.408 427.015 98.228 426.743 98.004L427.199 97.044ZM429.203 90.696C428.819 90.696 428.475 90.792 428.171 90.984C427.875 91.168 427.639 91.424 427.463 91.752C427.295 92.072 427.211 92.436 427.211 92.844C427.211 93.252 427.295 93.616 427.463 93.936C427.639 94.256 427.875 94.512 428.171 94.704C428.475 94.888 428.819 94.98 429.203 94.98C429.603 94.98 429.951 94.888 430.247 94.704C430.551 94.52 430.787 94.268 430.955 93.948C431.123 93.62 431.207 93.252 431.207 92.844C431.207 92.428 431.123 92.06 430.955 91.74C430.787 91.42 430.551 91.168 430.247 90.984C429.951 90.792 429.603 90.696 429.203 90.696ZM437.308 89.568C437.876 89.568 438.316 89.684 438.628 89.916C438.94 90.148 439.156 90.46 439.276 90.852C439.404 91.244 439.468 91.68 439.468 92.16V96H438.232V92.244C438.232 91.94 438.192 91.668 438.112 91.428C438.032 91.188 437.896 91 437.704 90.864C437.512 90.728 437.244 90.672 436.9 90.696C436.58 90.696 436.296 90.764 436.048 90.9C435.8 91.036 435.604 91.216 435.46 91.44C435.316 91.664 435.244 91.912 435.244 92.184V96H434.008V89.7H435.244V90.696C435.436 90.4 435.716 90.14 436.084 89.916C436.452 89.684 436.86 89.568 437.308 89.568ZM446.436 95.172H446.424C446.168 95.42 445.816 95.64 445.368 95.832C444.92 96.024 444.452 96.12 443.964 96.12C443.308 96.12 442.728 95.984 442.224 95.712C441.728 95.432 441.34 95.052 441.06 94.572C440.78 94.084 440.64 93.532 440.64 92.916C440.64 92.212 440.788 91.612 441.084 91.116C441.38 90.612 441.772 90.228 442.26 89.964C442.748 89.692 443.28 89.556 443.856 89.556C444.384 89.556 444.864 89.688 445.296 89.952C445.728 90.208 446.072 90.564 446.328 91.02C446.584 91.476 446.712 92.008 446.712 92.616L446.7 93.144H441.876C441.948 93.712 442.18 94.164 442.572 94.5C442.972 94.828 443.476 94.992 444.084 94.992C444.524 94.992 444.88 94.912 445.152 94.752C445.424 94.584 445.648 94.424 445.824 94.272L446.436 95.172ZM443.856 90.696C443.384 90.696 442.972 90.808 442.62 91.032C442.268 91.248 442.036 91.624 441.924 92.16H445.452V92.076C445.428 91.804 445.336 91.564 445.176 91.356C445.024 91.148 444.832 90.988 444.6 90.876C444.368 90.756 444.12 90.696 443.856 90.696ZM453.84 87.12V96H452.604V95.112C452.42 95.36 452.148 95.592 451.788 95.808C451.428 96.016 451.02 96.12 450.564 96.12C449.996 96.12 449.484 95.98 449.028 95.7C448.572 95.42 448.212 95.032 447.948 94.536C447.684 94.04 447.552 93.476 447.552 92.844C447.552 92.204 447.684 91.64 447.948 91.152C448.212 90.656 448.568 90.268 449.016 89.988C449.464 89.708 449.968 89.568 450.528 89.568C450.976 89.568 451.38 89.66 451.74 89.844C452.108 90.028 452.396 90.244 452.604 90.492V87.12H453.84ZM450.732 95.052C451.116 95.052 451.452 94.956 451.74 94.764C452.028 94.572 452.252 94.308 452.412 93.972C452.572 93.636 452.652 93.26 452.652 92.844C452.652 92.42 452.572 92.044 452.412 91.716C452.252 91.38 452.028 91.116 451.74 90.924C451.452 90.732 451.116 90.636 450.732 90.636C450.356 90.636 450.024 90.732 449.736 90.924C449.448 91.116 449.22 91.38 449.052 91.716C448.892 92.044 448.812 92.42 448.812 92.844C448.812 93.26 448.892 93.636 449.052 93.972C449.22 94.308 449.448 94.572 449.736 94.764C450.024 94.956 450.356 95.052 450.732 95.052ZM461.94 89.568C462.5 89.568 463 89.708 463.44 89.988C463.888 90.26 464.24 90.644 464.496 91.14C464.752 91.628 464.88 92.192 464.88 92.832C464.88 93.472 464.752 94.04 464.496 94.536C464.24 95.032 463.892 95.42 463.452 95.7C463.012 95.98 462.52 96.12 461.976 96.12C461.528 96.12 461.12 96.024 460.752 95.832C460.392 95.632 460.108 95.408 459.9 95.16V95.964H458.664V87.12H459.9V90.612C460.084 90.348 460.36 90.108 460.728 89.892C461.096 89.676 461.5 89.568 461.94 89.568ZM461.772 90.696C461.396 90.696 461.06 90.788 460.764 90.972C460.476 91.156 460.248 91.412 460.08 91.74C459.92 92.06 459.84 92.424 459.84 92.832C459.84 93.24 459.92 93.608 460.08 93.936C460.248 94.256 460.476 94.512 460.764 94.704C461.06 94.896 461.396 94.992 461.772 94.992C462.148 94.992 462.48 94.896 462.768 94.704C463.056 94.512 463.28 94.256 463.44 93.936C463.608 93.608 463.692 93.24 463.692 92.832C463.692 92.424 463.608 92.06 463.44 91.74C463.28 91.412 463.056 91.156 462.768 90.972C462.48 90.788 462.148 90.696 461.772 90.696ZM466.925 98.76L467.957 96.396L467.993 96.312L465.065 89.7H466.505L468.473 94.332C468.497 94.38 468.521 94.44 468.545 94.512C468.569 94.584 468.597 94.664 468.629 94.752C468.661 94.664 468.689 94.58 468.713 94.5C468.745 94.412 468.777 94.328 468.809 94.248L470.453 89.7H471.917L469.325 96L468.257 98.76H466.925Z" fill="#E82525"/>
<path d="M485.66 91.3359V92.6602H482.191V94.5586H486.117V96H480.562V88.1484H486.117V89.5547H482.191V91.3359H485.66ZM489.638 89.9297C490.006 89.9297 490.345 89.9844 490.658 90.0938C490.97 90.2031 491.213 90.3281 491.384 90.4688V91.7812C491.197 91.6562 490.966 91.5352 490.693 91.418C490.427 91.3008 490.15 91.2422 489.861 91.2422C489.58 91.2422 489.357 91.3047 489.193 91.4297C489.029 91.5547 488.947 91.7031 488.947 91.875C488.947 92 488.994 92.1172 489.088 92.2266C489.181 92.3281 489.361 92.418 489.627 92.4961L490.295 92.7188C491.193 92.9844 491.642 93.5039 491.642 94.2773C491.642 94.6445 491.537 94.9727 491.326 95.2617C491.123 95.543 490.845 95.7656 490.494 95.9297C490.15 96.0938 489.767 96.1758 489.345 96.1758C488.947 96.1758 488.56 96.1133 488.185 95.9883C487.81 95.8633 487.525 95.7266 487.33 95.5781V94.2773C487.478 94.3789 487.658 94.4766 487.869 94.5703C488.08 94.6641 488.299 94.7422 488.525 94.8047C488.752 94.8594 488.959 94.8867 489.146 94.8867C489.443 94.8867 489.67 94.8359 489.826 94.7344C489.99 94.625 490.072 94.4727 490.072 94.2773C490.072 94.1289 490.006 94.0117 489.873 93.9258C489.74 93.8398 489.545 93.7539 489.287 93.668L488.56 93.4102C488.107 93.2617 487.795 93.0508 487.623 92.7773C487.451 92.5039 487.365 92.1797 487.365 91.8047C487.365 91.4297 487.459 91.1055 487.646 90.832C487.841 90.5508 488.111 90.332 488.455 90.1758C488.799 90.0117 489.193 89.9297 489.638 89.9297ZM494.812 88.3594V90.082H496.453V91.3242H494.812V93.8789C494.812 94.1445 494.871 94.3555 494.988 94.5117C495.113 94.6602 495.297 94.7344 495.539 94.7344C495.75 94.7344 495.93 94.7109 496.078 94.6641C496.234 94.6172 496.379 94.5508 496.512 94.4648V95.6484C496.363 95.7969 496.176 95.9219 495.949 96.0234C495.73 96.125 495.453 96.1758 495.117 96.1758C494.586 96.1758 494.152 96.0078 493.816 95.6719C493.488 95.3281 493.324 94.8594 493.324 94.2656V91.3242H492.258V90.5625C492.633 90.4297 492.976 90.1797 493.289 89.8125C493.609 89.4453 493.863 88.9609 494.051 88.3594H494.812ZM500.326 89.9297C500.904 89.9297 501.401 90.0547 501.815 90.3047C502.236 90.5547 502.557 90.9023 502.776 91.3477C503.002 91.7852 503.115 92.293 503.115 92.8711V93.5039H498.826C498.904 93.9023 499.1 94.2227 499.412 94.4648C499.725 94.707 500.108 94.8281 500.561 94.8281C500.99 94.8281 501.381 94.7422 501.733 94.5703C502.084 94.3984 502.365 94.2227 502.576 94.043L502.565 95.4258C502.377 95.5898 502.096 95.7578 501.721 95.9297C501.354 96.0938 500.947 96.1758 500.502 96.1758C499.916 96.1758 499.381 96.043 498.897 95.7773C498.42 95.5117 498.037 95.1484 497.748 94.6875C497.467 94.2266 497.326 93.6992 497.326 93.1055C497.326 92.5273 497.455 92 497.713 91.5234C497.971 91.0469 498.326 90.6641 498.779 90.375C499.233 90.0781 499.748 89.9297 500.326 89.9297ZM500.291 91.2305C499.924 91.2305 499.615 91.3438 499.365 91.5703C499.115 91.7969 498.944 92.1016 498.85 92.4844H501.686C501.654 92.0625 501.498 91.75 501.217 91.5469C500.936 91.3359 500.627 91.2305 500.291 91.2305ZM507.516 89.9297C508.024 89.9297 508.485 90.0586 508.899 90.3164C509.321 90.5664 509.653 90.9258 509.895 91.3945C510.145 91.8633 510.27 92.4258 510.27 93.082C510.27 93.7383 510.145 94.2969 509.895 94.7578C509.653 95.2188 509.329 95.5703 508.922 95.8125C508.524 96.0547 508.09 96.1758 507.621 96.1758C507.184 96.1758 506.801 96.0625 506.473 95.8359C506.145 95.6016 505.895 95.3242 505.723 95.0039V96H504.235V87.5625H505.723V90.75C505.942 90.5 506.211 90.3008 506.532 90.1523C506.86 90.0039 507.188 89.9297 507.516 89.9297ZM507.211 91.3945C506.922 91.3945 506.653 91.4609 506.403 91.5938C506.161 91.7188 505.934 91.8945 505.723 92.1211V92.9648C505.715 93.3242 505.782 93.6328 505.922 93.8906C506.071 94.1406 506.262 94.3359 506.496 94.4766C506.731 94.6094 506.981 94.6758 507.246 94.6758C507.692 94.6758 508.047 94.5234 508.313 94.2188C508.586 93.9062 508.723 93.5273 508.723 93.082C508.723 92.7852 508.661 92.5117 508.536 92.2617C508.411 92.0039 508.235 91.7969 508.008 91.6406C507.782 91.4766 507.516 91.3945 507.211 91.3945ZM513.792 89.9297C514.112 89.9297 514.436 90.0039 514.764 90.1523C515.092 90.3008 515.366 90.5 515.585 90.75V90.082H517.073V96H515.585V95.0039C515.413 95.3242 515.163 95.6016 514.835 95.8359C514.506 96.0625 514.124 96.1758 513.686 96.1758C513.21 96.1758 512.768 96.0547 512.362 95.8125C511.964 95.5703 511.643 95.2188 511.401 94.7578C511.159 94.2969 511.038 93.7383 511.038 93.082C511.038 92.4258 511.159 91.8633 511.401 91.3945C511.651 90.9258 511.983 90.5664 512.397 90.3164C512.819 90.0586 513.284 89.9297 513.792 89.9297ZM514.096 91.3828C513.784 91.3828 513.514 91.4648 513.288 91.6289C513.069 91.7852 512.897 91.9922 512.772 92.25C512.647 92.5078 512.585 92.7852 512.585 93.082C512.585 93.5273 512.717 93.9062 512.983 94.2188C513.256 94.5312 513.616 94.6875 514.061 94.6875C514.327 94.6875 514.573 94.6172 514.799 94.4766C515.034 94.3359 515.221 94.1406 515.362 93.8906C515.51 93.6328 515.585 93.3242 515.585 92.9648V92.1211C515.374 91.8945 515.143 91.7148 514.893 91.582C514.651 91.4492 514.385 91.3828 514.096 91.3828ZM520.149 90.082V90.9258C520.329 90.6836 520.571 90.457 520.876 90.2461C521.188 90.0352 521.544 89.9297 521.942 89.9297C522.544 89.9297 523.048 90.1328 523.454 90.5391C523.86 90.9453 524.063 91.5547 524.063 92.3672V96H522.575L522.563 92.5664C522.563 92.168 522.466 91.8711 522.27 91.6758C522.083 91.4805 521.821 91.3828 521.485 91.3828C521.22 91.3828 520.97 91.4688 520.735 91.6406C520.509 91.8125 520.313 92.0156 520.149 92.25V96H518.661V90.082H520.149ZM536.849 88.0898V96H535.22V91.2188L533.204 93.4219H532.736L530.697 91.2188V96H529.068V88.0898H529.619L532.97 91.582L536.298 88.0898H536.849ZM541.449 89.9297C542.027 89.9297 542.554 90.0703 543.031 90.3516C543.507 90.625 543.89 91 544.179 91.4766C544.476 91.9453 544.625 92.4727 544.625 93.0586C544.625 93.6445 544.476 94.1719 544.179 94.6406C543.89 95.1094 543.507 95.4844 543.031 95.7656C542.554 96.0391 542.027 96.1758 541.449 96.1758C540.879 96.1758 540.351 96.0391 539.867 95.7656C539.39 95.4844 539.007 95.1094 538.718 94.6406C538.429 94.1719 538.285 93.6445 538.285 93.0586C538.285 92.4727 538.429 91.9453 538.718 91.4766C539.007 91 539.39 90.625 539.867 90.3516C540.351 90.0703 540.879 89.9297 541.449 89.9297ZM541.449 91.3711C541.168 91.3711 540.906 91.4375 540.664 91.5703C540.421 91.7031 540.226 91.8945 540.078 92.1445C539.937 92.3945 539.867 92.6992 539.867 93.0586C539.867 93.418 539.937 93.7227 540.078 93.9727C540.226 94.2227 540.421 94.4141 540.664 94.5469C540.906 94.6719 541.168 94.7344 541.449 94.7344C541.73 94.7344 541.992 94.6719 542.234 94.5469C542.476 94.4141 542.671 94.2227 542.82 93.9727C542.968 93.7227 543.043 93.418 543.043 93.0586C543.043 92.6992 542.968 92.3945 542.82 92.1445C542.671 91.8945 542.476 91.7031 542.234 91.5703C541.992 91.4375 541.73 91.3711 541.449 91.3711ZM547.279 90.082V90.9258C547.459 90.6836 547.701 90.457 548.006 90.2461C548.318 90.0352 548.674 89.9297 549.072 89.9297C549.674 89.9297 550.178 90.1328 550.584 90.5391C550.99 90.9453 551.193 91.5547 551.193 92.3672V96H549.705L549.693 92.5664C549.693 92.168 549.596 91.8711 549.4 91.6758C549.213 91.4805 548.951 91.3828 548.615 91.3828C548.349 91.3828 548.099 91.4688 547.865 91.6406C547.639 91.8125 547.443 92.0156 547.279 92.25V96H545.791V90.082H547.279ZM555.008 89.9297C555.328 89.9297 555.652 90.0039 555.981 90.1523C556.309 90.3008 556.582 90.5 556.801 90.75V90.082H558.289V95.8477C558.289 96.5195 558.141 97.0859 557.844 97.5469C557.547 98.0156 557.152 98.3711 556.66 98.6133C556.168 98.8633 555.629 98.9883 555.043 98.9883C554.52 98.9883 554.09 98.9102 553.754 98.7539C553.418 98.5977 553.106 98.418 552.816 98.2148V96.8086C552.996 96.918 553.184 97.0352 553.379 97.1602C553.582 97.2852 553.809 97.3906 554.059 97.4766C554.316 97.5625 554.613 97.6055 554.949 97.6055C555.301 97.6055 555.617 97.5391 555.899 97.4062C556.18 97.2734 556.399 97.0859 556.555 96.8438C556.719 96.6094 556.801 96.3398 556.801 96.0352V95.0039C556.629 95.3242 556.379 95.6016 556.051 95.8359C555.723 96.0625 555.34 96.1758 554.902 96.1758C554.426 96.1758 553.984 96.0547 553.578 95.8125C553.18 95.5703 552.859 95.2188 552.617 94.7578C552.375 94.2969 552.254 93.7383 552.254 93.082C552.254 92.4258 552.375 91.8633 552.617 91.3945C552.867 90.9258 553.199 90.5664 553.613 90.3164C554.035 90.0586 554.5 89.9297 555.008 89.9297ZM555.313 91.3945C555 91.3945 554.731 91.4766 554.504 91.6406C554.285 91.7969 554.113 92.0039 553.988 92.2617C553.863 92.5117 553.801 92.7852 553.801 93.082C553.801 93.5273 553.934 93.9062 554.199 94.2188C554.473 94.5234 554.832 94.6758 555.277 94.6758C555.543 94.6758 555.789 94.6094 556.016 94.4766C556.25 94.3359 556.438 94.1406 556.578 93.8906C556.727 93.6328 556.801 93.3242 556.801 92.9648V92.1211C556.59 91.8945 556.359 91.7188 556.109 91.5938C555.867 91.4609 555.602 91.3945 555.313 91.3945ZM565.104 90.082V93.6094C565.104 94.1328 564.987 94.5859 564.752 94.9688C564.518 95.3438 564.198 95.6328 563.791 95.8359C563.393 96.0391 562.94 96.1406 562.432 96.1406C561.916 96.1406 561.455 96.0391 561.049 95.8359C560.651 95.6328 560.334 95.3438 560.1 94.9688C559.873 94.5859 559.76 94.1328 559.76 93.6094V90.082H561.26L561.272 93.3398C561.272 93.8008 561.377 94.1445 561.588 94.3711C561.799 94.5977 562.08 94.7109 562.432 94.7109C562.776 94.7109 563.053 94.5977 563.264 94.3711C563.483 94.1445 563.592 93.8008 563.592 93.3398V90.082H565.104ZM568.708 90.082V96H567.219V91.3477H566.27V90.082H568.708ZM569.809 87.6211L568.204 89.2852H567.008L568.239 87.6211H569.809Z" fill="#FEF6F6"/>
<path d="M440.652 123.93C441.23 123.93 441.726 124.055 442.14 124.305C442.562 124.555 442.882 124.902 443.101 125.348C443.328 125.785 443.441 126.293 443.441 126.871V127.504H439.152C439.23 127.902 439.425 128.223 439.738 128.465C440.05 128.707 440.433 128.828 440.886 128.828C441.316 128.828 441.706 128.742 442.058 128.57C442.41 128.398 442.691 128.223 442.902 128.043L442.89 129.426C442.703 129.59 442.421 129.758 442.046 129.93C441.679 130.094 441.273 130.176 440.828 130.176C440.242 130.176 439.706 130.043 439.222 129.777C438.746 129.512 438.363 129.148 438.074 128.688C437.792 128.227 437.652 127.699 437.652 127.105C437.652 126.527 437.781 126 438.039 125.523C438.296 125.047 438.652 124.664 439.105 124.375C439.558 124.078 440.074 123.93 440.652 123.93ZM440.617 125.23C440.249 125.23 439.941 125.344 439.691 125.57C439.441 125.797 439.269 126.102 439.175 126.484H442.011C441.98 126.062 441.824 125.75 441.542 125.547C441.261 125.336 440.953 125.23 440.617 125.23ZM446.47 123.93C446.838 123.93 447.177 123.984 447.49 124.094C447.802 124.203 448.045 124.328 448.216 124.469V125.781C448.029 125.656 447.799 125.535 447.525 125.418C447.259 125.301 446.982 125.242 446.693 125.242C446.412 125.242 446.189 125.305 446.025 125.43C445.861 125.555 445.779 125.703 445.779 125.875C445.779 126 445.826 126.117 445.92 126.227C446.013 126.328 446.193 126.418 446.459 126.496L447.127 126.719C448.025 126.984 448.474 127.504 448.474 128.277C448.474 128.645 448.369 128.973 448.158 129.262C447.955 129.543 447.677 129.766 447.326 129.93C446.982 130.094 446.599 130.176 446.177 130.176C445.779 130.176 445.392 130.113 445.017 129.988C444.642 129.863 444.357 129.727 444.162 129.578V128.277C444.31 128.379 444.49 128.477 444.701 128.57C444.912 128.664 445.131 128.742 445.357 128.805C445.584 128.859 445.791 128.887 445.978 128.887C446.275 128.887 446.502 128.836 446.658 128.734C446.822 128.625 446.904 128.473 446.904 128.277C446.904 128.129 446.838 128.012 446.705 127.926C446.572 127.84 446.377 127.754 446.119 127.668L445.392 127.41C444.939 127.262 444.627 127.051 444.455 126.777C444.283 126.504 444.197 126.18 444.197 125.805C444.197 125.43 444.291 125.105 444.478 124.832C444.674 124.551 444.943 124.332 445.287 124.176C445.631 124.012 446.025 123.93 446.47 123.93ZM451.644 122.359V124.082H453.285V125.324H451.644V127.879C451.644 128.145 451.703 128.355 451.82 128.512C451.945 128.66 452.129 128.734 452.371 128.734C452.582 128.734 452.762 128.711 452.91 128.664C453.066 128.617 453.211 128.551 453.344 128.465V129.648C453.195 129.797 453.008 129.922 452.781 130.023C452.562 130.125 452.285 130.176 451.949 130.176C451.418 130.176 450.984 130.008 450.648 129.672C450.32 129.328 450.156 128.859 450.156 128.266V125.324H449.09V124.562C449.465 124.43 449.809 124.18 450.121 123.812C450.441 123.445 450.695 122.961 450.883 122.359H451.644ZM457.158 123.93C457.736 123.93 458.233 124.055 458.647 124.305C459.069 124.555 459.389 124.902 459.608 125.348C459.834 125.785 459.947 126.293 459.947 126.871V127.504H455.658C455.736 127.902 455.932 128.223 456.244 128.465C456.557 128.707 456.94 128.828 457.393 128.828C457.822 128.828 458.213 128.742 458.565 128.57C458.916 128.398 459.197 128.223 459.408 128.043L459.397 129.426C459.209 129.59 458.928 129.758 458.553 129.93C458.186 130.094 457.779 130.176 457.334 130.176C456.748 130.176 456.213 130.043 455.729 129.777C455.252 129.512 454.869 129.148 454.58 128.688C454.299 128.227 454.158 127.699 454.158 127.105C454.158 126.527 454.287 126 454.545 125.523C454.803 125.047 455.158 124.664 455.611 124.375C456.065 124.078 456.58 123.93 457.158 123.93ZM457.123 125.23C456.756 125.23 456.447 125.344 456.197 125.57C455.947 125.797 455.776 126.102 455.682 126.484H458.518C458.486 126.062 458.33 125.75 458.049 125.547C457.768 125.336 457.459 125.23 457.123 125.23ZM464.348 123.93C464.856 123.93 465.317 124.059 465.731 124.316C466.153 124.566 466.485 124.926 466.727 125.395C466.977 125.863 467.102 126.426 467.102 127.082C467.102 127.738 466.977 128.297 466.727 128.758C466.485 129.219 466.161 129.57 465.754 129.812C465.356 130.055 464.922 130.176 464.454 130.176C464.016 130.176 463.633 130.062 463.305 129.836C462.977 129.602 462.727 129.324 462.555 129.004V130H461.067V121.562H462.555V124.75C462.774 124.5 463.043 124.301 463.364 124.152C463.692 124.004 464.02 123.93 464.348 123.93ZM464.043 125.395C463.754 125.395 463.485 125.461 463.235 125.594C462.993 125.719 462.766 125.895 462.555 126.121V126.965C462.547 127.324 462.614 127.633 462.754 127.891C462.903 128.141 463.094 128.336 463.329 128.477C463.563 128.609 463.813 128.676 464.079 128.676C464.524 128.676 464.879 128.523 465.145 128.219C465.418 127.906 465.555 127.527 465.555 127.082C465.555 126.785 465.493 126.512 465.368 126.262C465.243 126.004 465.067 125.797 464.84 125.641C464.614 125.477 464.348 125.395 464.043 125.395ZM470.624 123.93C470.944 123.93 471.268 124.004 471.596 124.152C471.924 124.301 472.198 124.5 472.417 124.75V124.082H473.905V130H472.417V129.004C472.245 129.324 471.995 129.602 471.667 129.836C471.339 130.062 470.956 130.176 470.518 130.176C470.042 130.176 469.6 130.055 469.194 129.812C468.796 129.57 468.475 129.219 468.233 128.758C467.991 128.297 467.87 127.738 467.87 127.082C467.87 126.426 467.991 125.863 468.233 125.395C468.483 124.926 468.815 124.566 469.229 124.316C469.651 124.059 470.116 123.93 470.624 123.93ZM470.928 125.383C470.616 125.383 470.346 125.465 470.12 125.629C469.901 125.785 469.729 125.992 469.604 126.25C469.479 126.508 469.417 126.785 469.417 127.082C469.417 127.527 469.549 127.906 469.815 128.219C470.089 128.531 470.448 128.688 470.893 128.688C471.159 128.688 471.405 128.617 471.631 128.477C471.866 128.336 472.053 128.141 472.194 127.891C472.342 127.633 472.417 127.324 472.417 126.965V126.121C472.206 125.895 471.975 125.715 471.725 125.582C471.483 125.449 471.217 125.383 470.928 125.383ZM476.981 124.082V124.926C477.161 124.684 477.403 124.457 477.708 124.246C478.02 124.035 478.376 123.93 478.774 123.93C479.376 123.93 479.88 124.133 480.286 124.539C480.692 124.945 480.895 125.555 480.895 126.367V130H479.407L479.395 126.566C479.395 126.168 479.298 125.871 479.102 125.676C478.915 125.48 478.653 125.383 478.317 125.383C478.052 125.383 477.802 125.469 477.567 125.641C477.341 125.812 477.145 126.016 476.981 126.25V130H475.493V124.082H476.981ZM483.069 128.336C483.327 128.336 483.546 128.43 483.726 128.617C483.913 128.797 484.007 129.016 484.007 129.273C484.007 129.531 483.913 129.754 483.726 129.941C483.546 130.121 483.327 130.211 483.069 130.211C482.812 130.211 482.589 130.121 482.401 129.941C482.222 129.754 482.132 129.531 482.132 129.273C482.132 129.016 482.222 128.797 482.401 128.617C482.589 128.43 482.812 128.336 483.069 128.336ZM486.849 124.082V124.832C487.029 124.605 487.244 124.398 487.494 124.211C487.751 124.023 488.079 123.93 488.478 123.93C488.892 123.93 489.267 124.027 489.603 124.223C489.939 124.41 490.201 124.695 490.388 125.078C490.622 124.758 490.896 124.488 491.208 124.27C491.521 124.043 491.884 123.93 492.298 123.93C492.697 123.93 493.06 124.023 493.388 124.211C493.716 124.391 493.978 124.66 494.173 125.02C494.376 125.379 494.478 125.828 494.478 126.367V130H492.99L492.978 126.566C492.978 126.168 492.872 125.871 492.661 125.676C492.458 125.48 492.189 125.383 491.853 125.383C491.595 125.383 491.372 125.465 491.185 125.629C490.997 125.785 490.822 125.973 490.658 126.191V130H489.169L489.158 126.566C489.158 126.168 489.052 125.871 488.841 125.676C488.638 125.48 488.372 125.383 488.044 125.383C487.794 125.383 487.572 125.461 487.376 125.617C487.181 125.766 487.005 125.941 486.849 126.145V130H485.361V124.082H486.849ZM498.691 123.93C499.269 123.93 499.796 124.07 500.273 124.352C500.75 124.625 501.132 125 501.421 125.477C501.718 125.945 501.867 126.473 501.867 127.059C501.867 127.645 501.718 128.172 501.421 128.641C501.132 129.109 500.75 129.484 500.273 129.766C499.796 130.039 499.269 130.176 498.691 130.176C498.121 130.176 497.593 130.039 497.109 129.766C496.632 129.484 496.25 129.109 495.961 128.641C495.671 128.172 495.527 127.645 495.527 127.059C495.527 126.473 495.671 125.945 495.961 125.477C496.25 125 496.632 124.625 497.109 124.352C497.593 124.07 498.121 123.93 498.691 123.93ZM498.691 125.371C498.41 125.371 498.148 125.438 497.906 125.57C497.664 125.703 497.468 125.895 497.32 126.145C497.179 126.395 497.109 126.699 497.109 127.059C497.109 127.418 497.179 127.723 497.32 127.973C497.468 128.223 497.664 128.414 497.906 128.547C498.148 128.672 498.41 128.734 498.691 128.734C498.972 128.734 499.234 128.672 499.476 128.547C499.718 128.414 499.914 128.223 500.062 127.973C500.211 127.723 500.285 127.418 500.285 127.059C500.285 126.699 500.211 126.395 500.062 126.145C499.914 125.895 499.718 125.703 499.476 125.57C499.234 125.438 498.972 125.371 498.691 125.371ZM504.521 124.082V124.926C504.701 124.684 504.943 124.457 505.248 124.246C505.56 124.035 505.916 123.93 506.314 123.93C506.916 123.93 507.42 124.133 507.826 124.539C508.232 124.945 508.435 125.555 508.435 126.367V130H506.947L506.935 126.566C506.935 126.168 506.838 125.871 506.642 125.676C506.455 125.48 506.193 125.383 505.857 125.383C505.592 125.383 505.342 125.469 505.107 125.641C504.881 125.812 504.685 126.016 504.521 126.25V130H503.033V124.082H504.521ZM512.25 123.93C512.57 123.93 512.895 124.004 513.223 124.152C513.551 124.301 513.824 124.5 514.043 124.75V124.082H515.531V129.848C515.531 130.52 515.383 131.086 515.086 131.547C514.789 132.016 514.395 132.371 513.902 132.613C513.41 132.863 512.871 132.988 512.285 132.988C511.762 132.988 511.332 132.91 510.996 132.754C510.66 132.598 510.348 132.418 510.059 132.215V130.809C510.238 130.918 510.426 131.035 510.621 131.16C510.824 131.285 511.051 131.391 511.301 131.477C511.559 131.562 511.856 131.605 512.191 131.605C512.543 131.605 512.859 131.539 513.141 131.406C513.422 131.273 513.641 131.086 513.797 130.844C513.961 130.609 514.043 130.34 514.043 130.035V129.004C513.871 129.324 513.621 129.602 513.293 129.836C512.965 130.062 512.582 130.176 512.145 130.176C511.668 130.176 511.227 130.055 510.82 129.812C510.422 129.57 510.102 129.219 509.859 128.758C509.617 128.297 509.496 127.738 509.496 127.082C509.496 126.426 509.617 125.863 509.859 125.395C510.109 124.926 510.441 124.566 510.856 124.316C511.277 124.059 511.742 123.93 512.25 123.93ZM512.555 125.395C512.242 125.395 511.973 125.477 511.746 125.641C511.527 125.797 511.356 126.004 511.231 126.262C511.106 126.512 511.043 126.785 511.043 127.082C511.043 127.527 511.176 127.906 511.441 128.219C511.715 128.523 512.074 128.676 512.52 128.676C512.785 128.676 513.031 128.609 513.258 128.477C513.492 128.336 513.68 128.141 513.82 127.891C513.969 127.633 514.043 127.324 514.043 126.965V126.121C513.832 125.895 513.602 125.719 513.352 125.594C513.109 125.461 512.844 125.395 512.555 125.395ZM522.346 124.082V127.609C522.346 128.133 522.229 128.586 521.994 128.969C521.76 129.344 521.44 129.633 521.034 129.836C520.635 130.039 520.182 130.141 519.674 130.141C519.159 130.141 518.698 130.039 518.291 129.836C517.893 129.633 517.576 129.344 517.342 128.969C517.116 128.586 517.002 128.133 517.002 127.609V124.082H518.502L518.514 127.34C518.514 127.801 518.619 128.145 518.83 128.371C519.041 128.598 519.323 128.711 519.674 128.711C520.018 128.711 520.295 128.598 520.506 128.371C520.725 128.145 520.834 127.801 520.834 127.34V124.082H522.346ZM525.95 124.082V130H524.461V125.348H523.512V124.082H525.95ZM527.051 121.621L525.446 123.285H524.251L525.481 121.621H527.051Z" fill="#FEF6F6"/>
<path d="M431.24 121H426.76C425.238 121 424 122.238 424 123.76V128.24C424 129.762 425.238 131 426.76 131H431.24C432.762 131 434 129.762 434 128.24V123.76C434 122.238 432.762 121 431.24 121ZM433.113 128.24C433.113 129.273 432.273 130.113 431.24 130.113H426.76C425.727 130.113 424.887 129.273 424.887 128.24V123.76C424.887 122.727 425.727 121.887 426.76 121.887H431.24C432.273 121.887 433.113 122.727 433.113 123.76V128.24H433.113Z" fill="#FEF6F6"/>
<path d="M429 123.423C427.579 123.423 426.423 124.579 426.423 126C426.423 127.421 427.579 128.577 429 128.577C430.421 128.577 431.577 127.421 431.577 126C431.577 124.579 430.421 123.423 429 123.423ZM429 127.689C428.068 127.689 427.31 126.932 427.31 126C427.31 125.068 428.068 124.311 429 124.311C429.932 124.311 430.689 125.068 430.689 126C430.689 126.932 429.931 127.689 429 127.689Z" fill="#FEF6F6"/>
<path d="M431.685 122.671C431.514 122.671 431.346 122.74 431.225 122.861C431.104 122.982 431.034 123.15 431.034 123.322C431.034 123.493 431.104 123.661 431.225 123.782C431.346 123.903 431.514 123.972 431.685 123.972C431.856 123.972 432.024 123.903 432.145 123.782C432.266 123.661 432.335 123.493 432.335 123.322C432.335 123.15 432.266 122.982 432.145 122.861C432.024 122.74 431.856 122.671 431.685 122.671Z" fill="#FEF6F6"/>
<defs>
<filter id="filter0_i" x="0" y="0" width="959" height="175" filterUnits="userSpaceOnUse" color-interpolation-filters="sRGB">
<feFlood flood-opacity="0" result="BackgroundImageFix"/>
<feBlend mode="normal" in="SourceGraphic" in2="BackgroundImageFix" result="shape"/>
<feColorMatrix in="SourceAlpha" type="matrix" values="0 0 0 0 0 0 0 0 0 0 0 0 0 0 0 0 0 0 127 0" result="hardAlpha"/>
<feOffset dx="4" dy="10"/>
<feGaussianBlur stdDeviation="5"/>
<feComposite in2="hardAlpha" operator="arithmetic" k2="-1" k3="1"/>
<feColorMatrix type="matrix" values="0 0 0 0 0 0 0 0 0 0 0 0 0 0 0 0 0 0 0.25 0"/>
<feBlend mode="normal" in2="shape" result="effect1_innerShadow"/>
</filter>
<filter id="filter1_i" x="391.713" y="37.25" width="173.606" height="49" filterUnits="userSpaceOnUse" color-interpolation-filters="sRGB">
<feFlood flood-opacity="0" result="BackgroundImageFix"/>
<feBlend mode="normal" in="SourceGraphic" in2="BackgroundImageFix" result="shape"/>
<feColorMatrix in="SourceAlpha" type="matrix" values="0 0 0 0 0 0 0 0 0 0 0 0 0 0 0 0 0 0 127 0" result="hardAlpha"/>
<feOffset dy="4"/>
<feGaussianBlur stdDeviation="2"/>
<feComposite in2="hardAlpha" operator="arithmetic" k2="-1" k3="1"/>
<feColorMatrix type="matrix" values="0 0 0 0 0 0 0 0 0 0 0 0 0 0 0 0 0 0 0.25 0"/>
<feBlend mode="normal" in2="shape" result="effect1_innerShadow"/>
</filter>
<filter id="filter2_i" x="478" y="84" width="92" height="19" filterUnits="userSpaceOnUse" color-interpolation-filters="sRGB">
<feFlood flood-opacity="0" result="BackgroundImageFix"/>
<feBlend mode="normal" in="SourceGraphic" in2="BackgroundImageFix" result="shape"/>
<feColorMatrix in="SourceAlpha" type="matrix" values="0 0 0 0 0 0 0 0 0 0 0 0 0 0 0 0 0 0 127 0" result="hardAlpha"/>
<feOffset dy="4"/>
<feGaussianBlur stdDeviation="2"/>
<feComposite in2="hardAlpha" operator="arithmetic" k2="-1" k3="1"/>
<feColorMatrix type="matrix" values="0 0 0 0 0 0 0 0 0 0 0 0 0 0 0 0 0 0 0.25 0"/>
<feBlend mode="normal" in2="shape" result="effect1_innerShadow"/>
</filter>
<filter id="filter3_i" x="386" y="84" width="92" height="19" filterUnits="userSpaceOnUse" color-interpolation-filters="sRGB">
<feFlood flood-opacity="0" result="BackgroundImageFix"/>
<feBlend mode="normal" in="SourceGraphic" in2="BackgroundImageFix" result="shape"/>
<feColorMatrix in="SourceAlpha" type="matrix" values="0 0 0 0 0 0 0 0 0 0 0 0 0 0 0 0 0 0 127 0" result="hardAlpha"/>
<feOffset dy="4"/>
<feGaussianBlur stdDeviation="2"/>
<feComposite in2="hardAlpha" operator="arithmetic" k2="-1" k3="1"/>
<feColorMatrix type="matrix" values="0 0 0 0 0 0 0 0 0 0 0 0 0 0 0 0 0 0 0.25 0"/>
<feBlend mode="normal" in2="shape" result="effect1_innerShadow"/>
</filter>
</defs>
</svg>
